<mxfile host="app.diagrams.net" agent="Mozilla/5.0 (Windows NT 10.0; Win64; x64) AppleWebKit/537.36 (KHTML, like Gecko) Chrome/131.0.0.0 Safari/537.36" version="25.0.1">
  <diagram name="release cycle" id="jpbbou9N5lZfNct1HwIN">
    <mxGraphModel dx="1647" dy="848" grid="1" gridSize="10" guides="1" tooltips="1" connect="1" arrows="1" fold="1" page="1" pageScale="1" pageWidth="827" pageHeight="1169" math="0" shadow="0">
      <root>
        <mxCell id="tBuGV8-UZ42WYiWiYpsT-0" />
        <mxCell id="tBuGV8-UZ42WYiWiYpsT-1" parent="tBuGV8-UZ42WYiWiYpsT-0" />
        <mxCell id="tBuGV8-UZ42WYiWiYpsT-2" value="" style="endArrow=classic;html=1;rounded=0;" parent="tBuGV8-UZ42WYiWiYpsT-1" edge="1">
          <mxGeometry width="50" height="50" relative="1" as="geometry">
            <mxPoint x="600" y="370" as="sourcePoint" />
            <mxPoint x="600" y="660" as="targetPoint" />
          </mxGeometry>
        </mxCell>
        <mxCell id="tBuGV8-UZ42WYiWiYpsT-3" value="" style="rounded=0;whiteSpace=wrap;html=1;fillColor=#D4E1F5;" parent="tBuGV8-UZ42WYiWiYpsT-1" vertex="1">
          <mxGeometry x="485" y="360" width="70" height="70" as="geometry" />
        </mxCell>
        <mxCell id="tBuGV8-UZ42WYiWiYpsT-4" value="&lt;font style=&quot;font-size: 14px;&quot;&gt;Feature&lt;/font&gt;&lt;div&gt;&lt;font style=&quot;font-size: 14px;&quot;&gt;Definition&lt;/font&gt;&lt;/div&gt;" style="text;html=1;align=center;verticalAlign=middle;whiteSpace=wrap;rounded=0;" parent="tBuGV8-UZ42WYiWiYpsT-1" vertex="1">
          <mxGeometry x="480" y="360" width="80" height="50" as="geometry" />
        </mxCell>
        <mxCell id="tBuGV8-UZ42WYiWiYpsT-5" value="" style="rounded=0;whiteSpace=wrap;html=1;fillColor=#D4E1F5;" parent="tBuGV8-UZ42WYiWiYpsT-1" vertex="1">
          <mxGeometry x="485" y="430" width="70" height="160" as="geometry" />
        </mxCell>
        <mxCell id="tBuGV8-UZ42WYiWiYpsT-6" value="&lt;font style=&quot;font-size: 14px;&quot;&gt;Feature&lt;/font&gt;&lt;div&gt;&lt;span style=&quot;font-size: 14px;&quot;&gt;Work&lt;/span&gt;&lt;/div&gt;" style="text;html=1;align=center;verticalAlign=middle;whiteSpace=wrap;rounded=0;" parent="tBuGV8-UZ42WYiWiYpsT-1" vertex="1">
          <mxGeometry x="480" y="460" width="80" height="50" as="geometry" />
        </mxCell>
        <mxCell id="tBuGV8-UZ42WYiWiYpsT-7" value="" style="rounded=0;whiteSpace=wrap;html=1;fillColor=#D4E1F5;" parent="tBuGV8-UZ42WYiWiYpsT-1" vertex="1">
          <mxGeometry x="485" y="590" width="70" height="40" as="geometry" />
        </mxCell>
        <mxCell id="tBuGV8-UZ42WYiWiYpsT-8" value="&lt;span style=&quot;font-size: 14px;&quot;&gt;Bug Fixing&lt;/span&gt;&lt;span style=&quot;color: rgba(0, 0, 0, 0); font-family: monospace; font-size: 0px; text-align: start; text-wrap-mode: nowrap;&quot;&gt;%3CmxGraphModel%3E%3Croot%3E%3CmxCell%20id%3D%220%22%2F%3E%3CmxCell%20id%3D%221%22%20parent%3D%220%22%2F%3E%3CmxCell%20id%3D%222%22%20value%3D%22%22%20style%3D%22rounded%3D0%3BwhiteSpace%3Dwrap%3Bhtml%3D1%3B%22%20vertex%3D%221%22%20parent%3D%221%22%3E%3CmxGeometry%20x%3D%22475%22%20y%3D%22330%22%20width%3D%2290%22%20height%3D%22100%22%20as%3D%22geometry%22%2F%3E%3C%2FmxCell%3E%3CmxCell%20id%3D%223%22%20value%3D%22%26lt%3Bfont%20style%3D%26quot%3Bfont-size%3A%2014px%3B%26quot%3B%26gt%3BFeature%26lt%3B%2Ffont%26gt%3B%26lt%3Bdiv%26gt%3B%26lt%3Bfont%20style%3D%26quot%3Bfont-size%3A%2014px%3B%26quot%3B%26gt%3BDefinition%26lt%3B%2Ffont%26gt%3B%26lt%3B%2Fdiv%26gt%3B%22%20style%3D%22text%3Bhtml%3D1%3Balign%3Dcenter%3BverticalAlign%3Dmiddle%3BwhiteSpace%3Dwrap%3Brounded%3D0%3B%22%20vertex%3D%221%22%20parent%3D%221%22%3E%3CmxGeometry%20x%3D%22480%22%20y%3D%22360%22%20width%3D%2280%22%20height%3D%2250%22%20as%3D%22geometry%22%2F%3E%3C%2FmxCell%3E%3C%2Froot%3E%3C%2FmxGraphModel%3E&lt;/span&gt;" style="text;html=1;align=center;verticalAlign=middle;whiteSpace=wrap;rounded=0;" parent="tBuGV8-UZ42WYiWiYpsT-1" vertex="1">
          <mxGeometry x="495" y="585" width="50" height="50" as="geometry" />
        </mxCell>
        <mxCell id="tBuGV8-UZ42WYiWiYpsT-9" value="" style="rounded=0;whiteSpace=wrap;html=1;fillColor=#D4E1F5;" parent="tBuGV8-UZ42WYiWiYpsT-1" vertex="1">
          <mxGeometry x="485" y="630" width="70" height="40" as="geometry" />
        </mxCell>
        <mxCell id="tBuGV8-UZ42WYiWiYpsT-10" value="&lt;span style=&quot;font-size: 14px;&quot;&gt;Release&lt;/span&gt;" style="text;html=1;align=center;verticalAlign=middle;whiteSpace=wrap;rounded=0;" parent="tBuGV8-UZ42WYiWiYpsT-1" vertex="1">
          <mxGeometry x="507.5" y="635" width="25" height="30" as="geometry" />
        </mxCell>
        <mxCell id="tBuGV8-UZ42WYiWiYpsT-11" value="~ 3 month cycle" style="text;html=1;align=center;verticalAlign=middle;whiteSpace=wrap;rounded=0;fillColor=default;" parent="tBuGV8-UZ42WYiWiYpsT-1" vertex="1">
          <mxGeometry x="570" y="420" width="60" height="70" as="geometry" />
        </mxCell>
        <mxCell id="tBuGV8-UZ42WYiWiYpsT-12" value="week ~2" style="text;html=1;align=center;verticalAlign=middle;whiteSpace=wrap;rounded=0;" parent="tBuGV8-UZ42WYiWiYpsT-1" vertex="1">
          <mxGeometry x="400" y="410" width="60" height="30" as="geometry" />
        </mxCell>
        <mxCell id="tBuGV8-UZ42WYiWiYpsT-13" value="week ~10" style="text;html=1;align=center;verticalAlign=middle;whiteSpace=wrap;rounded=0;" parent="tBuGV8-UZ42WYiWiYpsT-1" vertex="1">
          <mxGeometry x="400" y="540" width="60" height="30" as="geometry" />
        </mxCell>
        <mxCell id="tBuGV8-UZ42WYiWiYpsT-14" value="week ~12" style="text;html=1;align=center;verticalAlign=middle;whiteSpace=wrap;rounded=0;" parent="tBuGV8-UZ42WYiWiYpsT-1" vertex="1">
          <mxGeometry x="400" y="650" width="60" height="30" as="geometry" />
        </mxCell>
        <mxCell id="tBuGV8-UZ42WYiWiYpsT-15" value="week ~11" style="text;html=1;align=center;verticalAlign=middle;whiteSpace=wrap;rounded=0;" parent="tBuGV8-UZ42WYiWiYpsT-1" vertex="1">
          <mxGeometry x="400" y="610" width="60" height="30" as="geometry" />
        </mxCell>
        <mxCell id="tBuGV8-UZ42WYiWiYpsT-16" value="&lt;ul&gt;&lt;li&gt;&lt;font style=&quot;font-size: 14px;&quot;&gt;Feature Discussion:&lt;/font&gt;&lt;/li&gt;&lt;/ul&gt;" style="text;html=1;align=left;verticalAlign=middle;whiteSpace=wrap;rounded=0;" parent="tBuGV8-UZ42WYiWiYpsT-1" vertex="1">
          <mxGeometry x="90" y="380" width="260" height="30" as="geometry" />
        </mxCell>
        <mxCell id="tBuGV8-UZ42WYiWiYpsT-17" value="&lt;ul&gt;&lt;li&gt;&lt;font style=&quot;font-size: 14px;&quot;&gt;Feature&amp;nbsp;Implementation&lt;/font&gt;:&lt;/li&gt;&lt;/ul&gt;" style="text;html=1;align=left;verticalAlign=middle;whiteSpace=wrap;rounded=0;" parent="tBuGV8-UZ42WYiWiYpsT-1" vertex="1">
          <mxGeometry x="90" y="470" width="260" height="30" as="geometry" />
        </mxCell>
        <mxCell id="tBuGV8-UZ42WYiWiYpsT-18" value="&lt;span style=&quot;font-size: 14px;&quot;&gt;...bugs, testing, bugs, fixing, bugs, ...iterating&lt;/span&gt;" style="text;html=1;align=left;verticalAlign=middle;whiteSpace=wrap;rounded=0;" parent="tBuGV8-UZ42WYiWiYpsT-1" vertex="1">
          <mxGeometry x="110" y="595" width="330" height="30" as="geometry" />
        </mxCell>
        <mxCell id="tBuGV8-UZ42WYiWiYpsT-19" value="&lt;div&gt;&lt;span style=&quot;font-size: 14px;&quot;&gt;&lt;br&gt;&lt;/span&gt;&lt;/div&gt;&lt;ul&gt;&lt;li&gt;&lt;font style=&quot;font-size: 14px;&quot;&gt;Release:&lt;/font&gt;&lt;/li&gt;&lt;/ul&gt;" style="text;html=1;align=left;verticalAlign=middle;whiteSpace=wrap;rounded=0;" parent="tBuGV8-UZ42WYiWiYpsT-1" vertex="1">
          <mxGeometry x="90" y="630" width="260" height="30" as="geometry" />
        </mxCell>
      </root>
    </mxGraphModel>
  </diagram>
</mxfile>
